

<svg width="150" height="150" viewBox="0 0 150 150" fill="none" xmlns="http://www.w3.org/2000/svg">
<path d="M80.625 65.625C76.875 64.6875 73.125 62.8125 70.3125 60C67.5 59.0625 66.5625 56.25 66.5625 54.375C66.5625 52.5 67.5 49.6875 69.375 48.75C72.1875 46.875 75 45 77.8125 45.9375C83.4375 45.9375 88.125 48.75 90.9375 52.5L99.375 41.25C96.5625 38.4375 93.75 36.5625 90.9375 34.6875C88.125 32.8125 84.375 31.875 80.625 31.875V18.75H69.375V31.875C64.6875 32.8125 60 35.625 56.25 39.375C52.5 44.0625 49.6875 49.6875 50.625 55.3125C50.625 60.9375 52.5 66.5625 56.25 70.3125C60.9375 75 67.5 77.8125 73.125 80.625C75.9375 81.5625 79.6875 83.4375 82.5 85.3125C84.375 87.1875 85.3125 90 85.3125 92.8125C85.3125 95.625 84.375 98.4375 82.5 101.25C79.6875 104.062 75.9375 105 73.125 105C69.375 105 64.6875 104.062 61.875 101.25C59.0625 99.375 56.25 96.5625 54.375 93.75L45 104.062C47.8125 107.812 50.625 110.625 54.375 113.438C59.0625 116.25 64.6875 119.062 70.3125 119.062V131.25H80.625V117.188C86.25 116.25 90.9375 113.438 94.6875 109.688C99.375 105 102.188 97.5 102.188 90.9375C102.188 85.3125 100.312 78.75 95.625 75C90.9375 70.3125 86.25 67.5 80.625 65.625ZM75 0C33.75 0 0 33.75 0 75C0 116.25 33.75 150 75 150C116.25 150 150 116.25 150 75C150 33.75 116.25 0 75 0ZM75 139.688C39.375 139.688 10.3125 110.625 10.3125 75C10.3125 39.375 39.375 10.3125 75 10.3125C110.625 10.3125 139.688 39.375 139.688 75C139.688 110.625 110.625 139.688 75 139.688Z" fill="#F96D00"/>
<circle cx="75" cy="75" r="68" stroke="#F2F2F2" stroke-width="14"/>
</svg>
