<svg width="865" height="110" viewBox="0 0 865 110" fill="none" xmlns="http://www.w3.org/2000/svg">
<path d="M0 107.1H29.1V69.6H78.75V45.45H29.1V27.6H84V2.1H0V107.1Z" fill="white"/>
<path d="M97.2656 107.1H126.366V75.3H138.816H139.116L160.266 107.1H193.866L168.816 70.5C181.866 64.95 190.416 54.3 190.416 38.25V37.95C190.416 27.6 187.266 19.5 181.116 13.5C174.066 6.3 162.966 2.1 146.916 2.1H97.2656V107.1ZM126.366 52.5V27.3H145.416C155.166 27.3 161.166 31.5 161.166 39.75V40.05C161.166 47.7 155.466 52.5 145.566 52.5H126.366Z" fill="white"/>
<path d="M257.878 109.2C290.278 109.2 314.578 84.75 314.578 54.6V54.3C314.578 24.15 290.578 0 258.178 0C225.778 0 201.478 24.45 201.478 54.6V54.9C201.478 85.05 225.478 109.2 257.878 109.2ZM258.178 82.95C242.278 82.95 231.328 69.75 231.328 54.6V54.3C231.328 39.15 241.978 26.25 257.878 26.25C273.928 26.25 284.878 39.45 284.878 54.6V54.9C284.878 70.05 274.228 82.95 258.178 82.95Z" fill="white"/>
<path d="M329.736 107.1H358.536V49.5L403.386 107.1H428.886V2.1H400.086V57.6L356.886 2.1H329.736V107.1Z" fill="white"/>
<path d="M473.16 107.1H502.26V27.6H533.76V2.1H441.66V27.6H473.16V107.1Z" fill="white"/>
<path d="M546.533 107.1H631.733V82.35H575.333V65.7H625.733V42.75H575.333V26.85H630.983V2.1H546.533V107.1Z" fill="white"/>
<path d="M646.582 107.1H675.382V49.5L720.232 107.1H745.732V2.1H716.932V57.6L673.732 2.1H646.582V107.1Z" fill="white"/>
<path d="M764.355 107.1H804.255C842.056 107.1 864.105 84.6 864.105 54.3V54C864.105 23.7 842.355 2.1 804.855 2.1H764.355V107.1ZM793.456 81.3V27.9H805.305C822.705 27.9 834.255 37.65 834.255 54.45V54.75C834.255 71.7 822.705 81.3 805.305 81.3H793.456Z" fill="white"/>
</svg>
