<svg width="867" height="243" viewBox="0 0 867 243" fill="none" xmlns="http://www.w3.org/2000/svg">
<path d="M0 106.8H28.8V49.2L73.65 106.8H99.15V1.79999H70.35V57.3L27.15 1.79999H0V106.8Z" fill="white"/>
<path d="M159.023 108.6C184.523 108.6 201.473 95.85 201.473 74.4V74.1C201.473 54.45 186.473 46.65 162.323 41.4C147.773 38.1 144.173 36 144.173 31.2V30.9C144.173 27.15 147.623 24.15 154.673 24.15C163.973 24.15 174.473 27.75 184.073 34.5L198.623 13.95C187.223 4.8 173.273 0 155.423 0C130.223 0 114.773 14.1 114.773 33.6V33.9C114.773 55.5 132.023 61.8 154.373 66.9C168.623 70.2 172.073 72.6 172.073 76.95V77.25C172.073 81.75 167.873 84.45 160.073 84.45C147.923 84.45 136.373 80.1 126.023 71.85L109.823 91.2C122.723 102.75 140.423 108.6 159.023 108.6Z" fill="white"/>
<path d="M0 240.1H29.1V202.6H78.75V178.45H29.1V160.6H84V135.1H0V240.1Z" fill="white"/>
<path d="M97.2656 240.1H126.366V208.3H138.816H139.116L160.266 240.1H193.866L168.816 203.5C181.866 197.95 190.416 187.3 190.416 171.25V170.95C190.416 160.6 187.266 152.5 181.116 146.5C174.066 139.3 162.966 135.1 146.916 135.1H97.2656V240.1ZM126.366 185.5V160.3H145.416C155.166 160.3 161.166 164.5 161.166 172.75V173.05C161.166 180.7 155.466 185.5 145.566 185.5H126.366Z" fill="white"/>
<path d="M257.878 242.2C290.278 242.2 314.578 217.75 314.578 187.6V187.3C314.578 157.15 290.578 133 258.178 133C225.778 133 201.478 157.45 201.478 187.6V187.9C201.478 218.05 225.478 242.2 257.878 242.2ZM258.178 215.95C242.278 215.95 231.328 202.75 231.328 187.6V187.3C231.328 172.15 241.978 159.25 257.878 159.25C273.928 159.25 284.878 172.45 284.878 187.6V187.9C284.878 203.05 274.228 215.95 258.178 215.95Z" fill="white"/>
<path d="M329.736 240.1H358.536V182.5L403.386 240.1H428.886V135.1H400.086V190.6L356.886 135.1H329.736V240.1Z" fill="white"/>
<path d="M473.16 240.1H502.26V160.6H533.76V135.1H441.66V160.6H473.16V240.1Z" fill="white"/>
<path d="M546.533 240.1H631.733V215.35H575.333V198.7H625.733V175.75H575.333V159.85H630.983V135.1H546.533V240.1Z" fill="white"/>
<path d="M646.582 240.1H675.382V182.5L720.232 240.1H745.732V135.1H716.932V190.6L673.732 135.1H646.582V240.1Z" fill="white"/>
<path d="M764.355 240.1H804.255C842.056 240.1 864.105 217.6 864.105 187.3V187C864.105 156.7 842.355 135.1 804.855 135.1H764.355V240.1ZM793.456 214.3V160.9H805.305C822.705 160.9 834.255 170.65 834.255 187.45V187.75C834.255 204.7 822.705 214.3 805.305 214.3H793.456Z" fill="white"/>
<path d="M235 0H867V111H235V0Z" fill="#F96D00"/>
<path d="M286.762 97H315.773C343.257 97 359.29 80.6404 359.29 58.6094V58.3913C359.29 36.3603 343.475 20.655 316.209 20.655H286.762V97ZM307.92 78.241V39.4141H316.537C329.188 39.4141 337.586 46.5033 337.586 58.7185V58.9366C337.586 71.2608 329.188 78.241 316.537 78.241H307.92Z" fill="#222831"/>
<path d="M370.158 97H432.106V79.0044H391.098V66.8983H427.744V50.2114H391.098V38.6506H431.561V20.655H370.158V97Z" fill="#222831"/>
<path d="M467.77 97.5453H487.401L518.375 20.655H495.145L477.803 68.9705L460.462 20.655H436.795L467.77 97.5453Z" fill="#222831"/>
<path d="M576.409 97.5453H594.841L610.11 53.5924L625.488 97.5453H643.92L669.441 20.655H647.519L634.214 64.8261L619.49 20.4369H601.276L586.552 64.8261L573.247 20.655H550.888L576.409 97.5453Z" fill="#222831"/>
<path d="M677.86 97H739.808V79.0044H698.8V66.8983H735.446V50.2114H698.8V38.6506H739.263V20.655H677.86V97Z" fill="#222831"/>
<path d="M750.605 97H789.977C808.191 97 818.879 89.0383 818.879 75.9506V75.7325C818.879 65.3714 812.99 60.1363 803.719 57.0825C810.481 54.1378 815.498 48.9027 815.498 40.0685V39.8503C815.498 34.6152 813.644 30.5799 810.59 27.5261C806.118 23.0544 799.356 20.655 789.759 20.655H750.605V97ZM771.218 51.084V37.669H784.96C791.286 37.669 794.558 40.0685 794.558 44.2129V44.431C794.558 48.9027 790.958 51.084 784.524 51.084H771.218ZM771.218 79.986V65.9167H787.359C794.449 65.9167 797.72 68.6433 797.72 72.7877V73.0059C797.72 77.4775 794.012 79.986 787.577 79.986H771.218Z" fill="#222831"/>
</svg>
