<svg width="202" height="109" viewBox="0 0 202 109" fill="none" xmlns="http://www.w3.org/2000/svg">
<path d="M0 106.8H28.8V49.2L73.65 106.8H99.15V1.79999H70.35V57.3L27.15 1.79999H0V106.8Z" fill="white"/>
<path d="M159.023 108.6C184.523 108.6 201.473 95.85 201.473 74.4V74.1C201.473 54.45 186.473 46.65 162.323 41.4C147.773 38.1 144.173 36 144.173 31.2V30.9C144.173 27.15 147.623 24.15 154.673 24.15C163.973 24.15 174.473 27.75 184.073 34.5L198.623 13.95C187.223 4.8 173.273 0 155.423 0C130.223 0 114.773 14.1 114.773 33.6V33.9C114.773 55.5 132.023 61.8 154.373 66.9C168.623 70.2 172.073 72.6 172.073 76.95V77.25C172.073 81.75 167.873 84.45 160.073 84.45C147.923 84.45 136.373 80.1 126.023 71.85L109.823 91.2C122.723 102.75 140.423 108.6 159.023 108.6Z" fill="white"/>
</svg>
